<svg width="152" height="47" viewBox="0 0 152 47" fill="none" xmlns="http://www.w3.org/2000/svg">
<path d="M57.1885 12.7373C57.0889 14.1143 56.5791 15.1982 55.6592 15.9893C54.7451 16.7803 53.5381 17.1758 52.0381 17.1758C50.3975 17.1758 49.1055 16.625 48.1621 15.5234C47.2246 14.416 46.7559 12.8984 46.7559 10.9707V10.1885C46.7559 8.95801 46.9727 7.87402 47.4062 6.93652C47.8398 5.99902 48.458 5.28125 49.2607 4.7832C50.0693 4.2793 51.0068 4.02734 52.0732 4.02734C53.5498 4.02734 54.7393 4.42285 55.6416 5.21387C56.5439 6.00488 57.0654 7.11523 57.2061 8.54492H54.5693C54.5049 7.71875 54.2734 7.12109 53.875 6.75195C53.4824 6.37695 52.8818 6.18945 52.0732 6.18945C51.1943 6.18945 50.5352 6.50586 50.0957 7.13867C49.6621 7.76562 49.4395 8.74121 49.4277 10.0654V11.0322C49.4277 12.415 49.6357 13.4258 50.0518 14.0645C50.4736 14.7031 51.1357 15.0225 52.0381 15.0225C52.8525 15.0225 53.459 14.8379 53.8574 14.4688C54.2617 14.0938 54.4932 13.5166 54.5518 12.7373H57.1885ZM66.6455 9.5293H63.5957V17H61.0469V9.5293H58.0498V7.49023H66.6455V9.5293ZM67.2695 12.1572C67.2695 11.2139 67.4512 10.373 67.8145 9.63477C68.1777 8.89648 68.6992 8.3252 69.3789 7.9209C70.0645 7.5166 70.8584 7.31445 71.7607 7.31445C73.0439 7.31445 74.0898 7.70703 74.8984 8.49219C75.7129 9.27734 76.167 10.3438 76.2607 11.6914L76.2783 12.3418C76.2783 13.8008 75.8711 14.9727 75.0566 15.8574C74.2422 16.7363 73.1494 17.1758 71.7783 17.1758C70.4072 17.1758 69.3115 16.7363 68.4912 15.8574C67.6768 14.9785 67.2695 13.7832 67.2695 12.2715V12.1572ZM69.8096 12.3418C69.8096 13.2441 69.9795 13.9355 70.3193 14.416C70.6592 14.8906 71.1455 15.1279 71.7783 15.1279C72.3936 15.1279 72.874 14.8936 73.2197 14.4248C73.5654 13.9502 73.7383 13.1943 73.7383 12.1572C73.7383 11.2725 73.5654 10.5869 73.2197 10.1006C72.874 9.61426 72.3877 9.37109 71.7607 9.37109C71.1396 9.37109 70.6592 9.61426 70.3193 10.1006C69.9795 10.5811 69.8096 11.3281 69.8096 12.3418ZM83.5732 7.49023H86.1133V17H83.5732V11.1289L80.3916 17H77.8428V7.49023H80.3916V13.3525L83.5732 7.49023ZM93.8477 14.0029L96.335 7.49023H99.5166V17H96.9766V11.1641L94.7002 17H92.9951L90.7627 11.2607V17H88.2227V7.49023H91.3779L93.8477 14.0029ZM101.336 12.1572C101.336 11.2139 101.518 10.373 101.881 9.63477C102.244 8.89648 102.766 8.3252 103.445 7.9209C104.131 7.5166 104.925 7.31445 105.827 7.31445C107.11 7.31445 108.156 7.70703 108.965 8.49219C109.779 9.27734 110.233 10.3438 110.327 11.6914L110.345 12.3418C110.345 13.8008 109.938 14.9727 109.123 15.8574C108.309 16.7363 107.216 17.1758 105.845 17.1758C104.474 17.1758 103.378 16.7363 102.558 15.8574C101.743 14.9785 101.336 13.7832 101.336 12.2715V12.1572ZM103.876 12.3418C103.876 13.2441 104.046 13.9355 104.386 14.416C104.726 14.8906 105.212 15.1279 105.845 15.1279C106.46 15.1279 106.94 14.8936 107.286 14.4248C107.632 13.9502 107.805 13.1943 107.805 12.1572C107.805 11.2725 107.632 10.5869 107.286 10.1006C106.94 9.61426 106.454 9.37109 105.827 9.37109C105.206 9.37109 104.726 9.61426 104.386 10.1006C104.046 10.5811 103.876 11.3281 103.876 12.3418ZM115.864 15.1279C116.333 15.1279 116.714 14.999 117.007 14.7412C117.3 14.4834 117.452 14.1406 117.464 13.7129H119.846C119.84 14.3574 119.664 14.9492 119.318 15.4883C118.973 16.0215 118.498 16.4375 117.895 16.7363C117.297 17.0293 116.635 17.1758 115.908 17.1758C114.549 17.1758 113.477 16.7451 112.691 15.8838C111.906 15.0166 111.514 13.8213 111.514 12.2979V12.1309C111.514 10.666 111.903 9.49707 112.683 8.62402C113.462 7.75098 114.531 7.31445 115.891 7.31445C117.08 7.31445 118.032 7.6543 118.747 8.33398C119.468 9.00781 119.834 9.90723 119.846 11.0322H117.464C117.452 10.54 117.3 10.1416 117.007 9.83691C116.714 9.52637 116.327 9.37109 115.847 9.37109C115.255 9.37109 114.807 9.58789 114.502 10.0215C114.203 10.4492 114.054 11.1465 114.054 12.1133V12.377C114.054 13.3555 114.203 14.0586 114.502 14.4863C114.801 14.9141 115.255 15.1279 115.864 15.1279ZM129.188 9.5293H126.139V17H123.59V9.5293H120.593V7.49023H129.188V9.5293ZM133.188 10.2764H135.007C135.827 10.2764 136.548 10.4141 137.169 10.6895C137.79 10.9648 138.265 11.3604 138.593 11.876C138.927 12.3857 139.094 12.9805 139.094 13.6602C139.094 14.6621 138.722 15.4707 137.978 16.0859C137.239 16.6953 136.231 17 134.954 17H130.639V7.49023H133.188V10.2764ZM133.188 12.3154V14.9697H134.989C135.493 14.9697 135.88 14.8525 136.149 14.6182C136.419 14.3838 136.554 14.0645 136.554 13.6602C136.554 13.25 136.422 12.9248 136.158 12.6846C135.895 12.4385 135.505 12.3154 134.989 12.3154H133.188Z" fill="white"/>
<path d="M51.6953 43H50.2422V33.3672L47.3281 34.4375V33.125L51.4688 31.5703H51.6953V43ZM62.0312 39.1797H63.6094V40.3594H62.0312V43H60.5781V40.3594H55.3984V39.5078L60.4922 31.625H62.0312V39.1797ZM57.0391 39.1797H60.5781V33.6016L60.4062 33.9141L57.0391 39.1797ZM76.0156 38.1484C76.0156 39.8411 75.7266 41.099 75.1484 41.9219C74.5703 42.7448 73.6667 43.1562 72.4375 43.1562C71.224 43.1562 70.3255 42.7552 69.7422 41.9531C69.1589 41.1458 68.8568 39.9427 68.8359 38.3438V36.4141C68.8359 34.7422 69.125 33.5 69.7031 32.6875C70.2812 31.875 71.1875 31.4688 72.4219 31.4688C73.6458 31.4688 74.5469 31.862 75.125 32.6484C75.7031 33.4297 76 34.638 76.0156 36.2734V38.1484ZM74.5703 36.1719C74.5703 34.9479 74.3984 34.0573 74.0547 33.5C73.7109 32.9375 73.1667 32.6562 72.4219 32.6562C71.6823 32.6562 71.1432 32.9349 70.8047 33.4922C70.4661 34.0495 70.2917 34.9062 70.2812 36.0625V38.375C70.2812 39.6042 70.4583 40.513 70.8125 41.1016C71.1719 41.6849 71.7135 41.9766 72.4375 41.9766C73.151 41.9766 73.6797 41.7005 74.0234 41.1484C74.3724 40.5964 74.5547 39.7266 74.5703 38.5391V36.1719ZM85 38.1484C85 39.8411 84.7109 41.099 84.1328 41.9219C83.5547 42.7448 82.651 43.1562 81.4219 43.1562C80.2083 43.1562 79.3099 42.7552 78.7266 41.9531C78.1432 41.1458 77.8411 39.9427 77.8203 38.3438V36.4141C77.8203 34.7422 78.1094 33.5 78.6875 32.6875C79.2656 31.875 80.1719 31.4688 81.4062 31.4688C82.6302 31.4688 83.5312 31.862 84.1094 32.6484C84.6875 33.4297 84.9844 34.638 85 36.2734V38.1484ZM83.5547 36.1719C83.5547 34.9479 83.3828 34.0573 83.0391 33.5C82.6953 32.9375 82.151 32.6562 81.4062 32.6562C80.6667 32.6562 80.1276 32.9349 79.7891 33.4922C79.4505 34.0495 79.276 34.9062 79.2656 36.0625V38.375C79.2656 39.6042 79.4427 40.513 79.7969 41.1016C80.1562 41.6849 80.6979 41.9766 81.4219 41.9766C82.1354 41.9766 82.6641 41.7005 83.0078 41.1484C83.3568 40.5964 83.5391 39.7266 83.5547 38.5391V36.1719ZM93.9844 38.1484C93.9844 39.8411 93.6953 41.099 93.1172 41.9219C92.5391 42.7448 91.6354 43.1562 90.4062 43.1562C89.1927 43.1562 88.2943 42.7552 87.7109 41.9531C87.1276 41.1458 86.8255 39.9427 86.8047 38.3438V36.4141C86.8047 34.7422 87.0938 33.5 87.6719 32.6875C88.25 31.875 89.1562 31.4688 90.3906 31.4688C91.6146 31.4688 92.5156 31.862 93.0938 32.6484C93.6719 33.4297 93.9688 34.638 93.9844 36.2734V38.1484ZM92.5391 36.1719C92.5391 34.9479 92.3672 34.0573 92.0234 33.5C91.6797 32.9375 91.1354 32.6562 90.3906 32.6562C89.651 32.6562 89.112 32.9349 88.7734 33.4922C88.4349 34.0495 88.2604 34.9062 88.25 36.0625V38.375C88.25 39.6042 88.4271 40.513 88.7812 41.1016C89.1406 41.6849 89.6823 41.9766 90.4062 41.9766C91.1198 41.9766 91.6484 41.7005 91.9922 41.1484C92.3411 40.5964 92.5234 39.7266 92.5391 38.5391V36.1719ZM107.094 38.8672C107.094 40.1536 106.799 41.1901 106.211 41.9766C105.622 42.763 104.826 43.1562 103.82 43.1562C102.794 43.1562 101.987 42.8307 101.398 42.1797V46.25H99.9531V34.5469H101.273L101.344 35.4844C101.932 34.7552 102.75 34.3906 103.797 34.3906C104.812 34.3906 105.615 34.7734 106.203 35.5391C106.797 36.3047 107.094 37.3698 107.094 38.7344V38.8672ZM105.648 38.7031C105.648 37.75 105.445 36.9974 105.039 36.4453C104.633 35.8932 104.076 35.6172 103.367 35.6172C102.492 35.6172 101.836 36.0052 101.398 36.7812V40.8203C101.831 41.5911 102.492 41.9766 103.383 41.9766C104.076 41.9766 104.625 41.7031 105.031 41.1562C105.443 40.6042 105.648 39.7865 105.648 38.7031ZM111.609 40.8828L113.578 34.5469H115.125L111.727 44.3047C111.201 45.7109 110.365 46.4141 109.219 46.4141L108.945 46.3906L108.406 46.2891V45.1172L108.797 45.1484C109.286 45.1484 109.667 45.0495 109.938 44.8516C110.214 44.6536 110.44 44.2917 110.617 43.7656L110.938 42.9062L107.922 34.5469H109.5L111.609 40.8828ZM120.133 35.0312C121.195 35.0312 122.044 35.388 122.68 36.1016C123.32 36.8099 123.641 37.7448 123.641 38.9062V39.0391C123.641 39.8359 123.487 40.5495 123.18 41.1797C122.872 41.8047 122.43 42.2917 121.852 42.6406C121.279 42.9844 120.617 43.1562 119.867 43.1562C118.732 43.1562 117.818 42.7786 117.125 42.0234C116.432 41.263 116.086 40.2448 116.086 38.9688V38.2656C116.086 36.4896 116.414 35.0781 117.07 34.0312C117.732 32.9844 118.706 32.3464 119.992 32.1172C120.721 31.987 121.214 31.8281 121.469 31.6406C121.724 31.4531 121.852 31.1953 121.852 30.8672H123.039C123.039 31.5182 122.891 32.026 122.594 32.3906C122.302 32.7552 121.833 33.013 121.188 33.1641L120.109 33.4062C119.25 33.6094 118.604 33.9531 118.172 34.4375C117.745 34.9167 117.466 35.5573 117.336 36.3594C118.102 35.474 119.034 35.0312 120.133 35.0312ZM119.852 36.2188C119.143 36.2188 118.581 36.4583 118.164 36.9375C117.747 37.4115 117.539 38.0703 117.539 38.9141V39.0391C117.539 39.9453 117.747 40.6641 118.164 41.1953C118.586 41.7214 119.154 41.9844 119.867 41.9844C120.586 41.9844 121.154 41.7188 121.57 41.1875C121.987 40.6562 122.195 39.8802 122.195 38.8594C122.195 38.0625 121.984 37.4245 121.562 36.9453C121.146 36.4609 120.576 36.2188 119.852 36.2188ZM132.195 34.5469V43H130.742V35.7422H127.867L127.695 38.9062C127.602 40.3594 127.357 41.3984 126.961 42.0234C126.57 42.6484 125.948 42.974 125.094 43H124.516V41.7266L124.93 41.6953C125.398 41.6432 125.734 41.3724 125.938 40.8828C126.141 40.3932 126.271 39.487 126.328 38.1641L126.484 34.5469H132.195ZM138.023 43.1562C136.878 43.1562 135.945 42.7812 135.227 42.0312C134.508 41.276 134.148 40.2682 134.148 39.0078V38.7422C134.148 37.9036 134.307 37.1562 134.625 36.5C134.948 35.8385 135.396 35.3229 135.969 34.9531C136.547 34.5781 137.172 34.3906 137.844 34.3906C138.943 34.3906 139.797 34.7526 140.406 35.4766C141.016 36.2005 141.32 37.237 141.32 38.5859V39.1875H135.594C135.615 40.0208 135.857 40.6953 136.32 41.2109C136.789 41.7214 137.383 41.9766 138.102 41.9766C138.612 41.9766 139.044 41.8724 139.398 41.6641C139.753 41.4557 140.062 41.1797 140.328 40.8359L141.211 41.5234C140.503 42.612 139.44 43.1562 138.023 43.1562ZM137.844 35.5781C137.26 35.5781 136.771 35.7917 136.375 36.2188C135.979 36.6406 135.734 37.2344 135.641 38H139.875V37.8906C139.833 37.1562 139.635 36.5885 139.281 36.1875C138.927 35.7812 138.448 35.5781 137.844 35.5781ZM148.469 34.5469H149.914V43H148.469V36.8359L144.57 43H143.125V34.5469H144.57V40.7188L148.469 34.5469ZM148.859 31.4688C148.859 32.099 148.643 32.6068 148.211 32.9922C147.784 33.3724 147.221 33.5625 146.523 33.5625C145.826 33.5625 145.26 33.3698 144.828 32.9844C144.396 32.599 144.18 32.0938 144.18 31.4688H145.359C145.359 31.8333 145.458 32.1198 145.656 32.3281C145.854 32.5312 146.143 32.6328 146.523 32.6328C146.888 32.6328 147.172 32.5312 147.375 32.3281C147.583 32.125 147.688 31.8385 147.688 31.4688H148.859Z" fill="white"/>
<path d="M4.98442 32.6568C4.87549 32.5477 4.72431 32.4851 4.57021 32.4851C4.4161 32.4851 4.26492 32.5477 4.15594 32.6568C4.04695 32.7658 3.98425 32.917 3.98425 33.0711C3.98425 33.2252 4.04689 33.3763 4.15594 33.4853C4.26492 33.5943 4.4161 33.657 4.57021 33.657C4.72431 33.657 4.87549 33.5943 4.98442 33.4853C5.0934 33.3763 5.15616 33.2252 5.15616 33.0711C5.15616 32.917 5.09346 32.7658 4.98442 32.6568Z" fill="#FFBB01"/>
<path d="M27.5116 16.7193C27.4026 16.6102 27.252 16.5476 27.0973 16.5476C26.9432 16.5476 26.792 16.6102 26.683 16.7193C26.5741 16.8283 26.5114 16.9795 26.5114 17.1336C26.5114 17.2877 26.574 17.4388 26.683 17.5478C26.792 17.6568 26.9432 17.7195 27.0973 17.7195C27.252 17.7195 27.4026 17.6568 27.5116 17.5478C27.6211 17.4388 27.6838 17.2877 27.6838 17.1336C27.6838 16.9795 27.6211 16.8283 27.5116 16.7193Z" fill="#FFBB01"/>
<path d="M29.8284 6.17163C29.7185 6.06176 29.5694 6 29.4139 6L14.9999 6.00076C14.6763 6.00076 14.414 6.26315 14.414 6.58671V8.26236L8.85978 9.75062C8.54717 9.83441 8.36166 10.1557 8.44545 10.4682L11.3241 21.2112L8.83382 23.7014C8.51688 23.2387 7.98471 22.9343 7.38277 22.9343H1.7578C0.788516 22.9343 0 23.7229 0 24.6921V34.2429C0 35.2122 0.788516 36.0008 1.7578 36.0008H7.38282C8.20626 36.0008 8.89898 35.4314 9.08882 34.666L9.78552 35.2735C10.3234 35.7425 11.0124 36.0008 11.7261 36.0008H29.414C29.7376 36.0008 30 35.7384 30 35.4149V6.58595C29.9999 6.43056 29.9382 6.28149 29.8284 6.17163ZM7.96866 34.243C7.96866 34.566 7.7058 34.8289 7.38271 34.8289H1.75774C1.43465 34.8289 1.17179 34.5661 1.17179 34.243V24.6922C1.17179 24.3691 1.43465 24.1062 1.75774 24.1062H3.9843V30.8561C3.9843 31.1797 4.24669 31.4421 4.57025 31.4421C4.89382 31.4421 5.1562 31.1797 5.1562 30.8561V24.1062H7.38277C7.70586 24.1062 7.96872 24.3691 7.96872 24.6922V34.243H7.96866ZM9.72904 10.7309L14.414 9.47558V11.6468L14.0213 11.7521C13.8711 11.7923 13.7432 11.8905 13.6655 12.0251C13.5878 12.1596 13.5667 12.3196 13.6069 12.4697C13.8321 13.31 13.3316 14.1768 12.4913 14.402C12.341 14.4423 12.2129 14.5406 12.1352 14.6755C12.0576 14.8103 12.0367 14.9705 12.0773 15.1208L14.3613 23.5783H13.1853L12.5792 21.2073C12.5599 21.1318 12.5262 21.0623 12.481 21.0018L9.72904 10.7309ZM14.414 14.3339V19.2783L13.3452 15.321C13.7917 15.0905 14.157 14.7456 14.414 14.3339ZM22.832 34.8289H11.726C11.2956 34.8289 10.88 34.6731 10.5556 34.3903L9.14056 33.1562V25.0521L11.6987 22.4939L12.1627 24.3092C12.229 24.5686 12.4626 24.75 12.7303 24.75L24.2504 24.7507C24.7028 24.7507 25.0707 25.1187 25.0707 25.571C25.0707 26.0234 24.7028 26.3914 24.2504 26.3914H18.3475C18.024 26.3914 17.7616 26.6538 17.7616 26.9773C17.7616 27.3009 18.024 27.5633 18.3475 27.5633H26.0844C26.5368 27.5633 26.9048 27.9313 26.9048 28.3836C26.9048 28.836 26.5368 29.2039 26.0844 29.2039H18.3475C18.024 29.2039 17.7616 29.4663 17.7616 29.7899C17.7616 30.1135 18.024 30.3759 18.3475 30.3759H24.8307C25.283 30.3759 25.651 30.7438 25.651 31.1962C25.651 31.6485 25.283 32.0165 24.8307 32.0165H18.3475C18.024 32.0165 17.7616 32.2789 17.7616 32.6025C17.7616 32.926 18.024 33.1884 18.3475 33.1884H22.832C23.2843 33.1884 23.6523 33.5564 23.6523 34.0088C23.6523 34.4609 23.2843 34.8289 22.832 34.8289ZM28.8281 34.8289H28.828H24.6467C24.7604 34.5785 24.8242 34.3009 24.8242 34.0085C24.8242 33.7161 24.7604 33.4386 24.6467 33.1882H24.8307C25.9292 33.1882 26.8228 32.2945 26.8228 31.196C26.8228 30.8756 26.7464 30.5728 26.6114 30.3044C27.4549 30.0727 28.0766 29.2995 28.0766 28.3835C28.0766 27.9391 27.9302 27.5283 27.6833 27.1966V19.7703C27.6833 19.4467 27.4209 19.1843 27.0974 19.1843C26.7738 19.1843 26.5114 19.4467 26.5114 19.7703V26.438C26.3737 26.4078 26.2309 26.3914 26.0843 26.3914H26.0651C26.1787 26.141 26.2425 25.8634 26.2425 25.571C26.2425 24.4725 25.3488 23.5789 24.2503 23.5789H23.3084C24.3086 23.1499 25.011 22.1558 25.011 21.0004C25.011 19.4541 23.7531 18.1961 22.2068 18.1961C20.6606 18.1961 19.4026 19.4541 19.4026 21.0004C19.4026 22.1558 20.1051 23.1499 21.1052 23.5789H17.9023V12.4374C18.949 12.2093 19.775 11.3834 20.003 10.3366H24.4106C24.6387 11.3834 25.4646 12.2093 26.5114 12.4374V14.2592C26.5114 14.5827 26.7737 14.8451 27.0973 14.8451C27.4209 14.8451 27.6833 14.5827 27.6833 14.2592V11.9143C27.6833 11.5907 27.4209 11.3284 27.0973 11.3284C26.2273 11.3284 25.5197 10.6206 25.5197 9.75068C25.5197 9.42712 25.2573 9.16473 24.9337 9.16473H19.4799C19.1564 9.16473 18.894 9.42712 18.894 9.75068C18.894 10.6206 18.1863 11.3284 17.3164 11.3284C16.9928 11.3284 16.7304 11.5907 16.7304 11.9143V23.5788H15.5859V7.17255L28.8281 7.1719V34.8289ZM22.207 22.6327C21.3069 22.6327 20.5747 21.9005 20.5747 21.0004C20.5747 20.1004 21.3069 19.3681 22.207 19.3681C23.107 19.3681 23.8392 20.1004 23.8392 21.0004C23.8392 21.9004 23.107 22.6327 22.207 22.6327Z" fill="#FFBB01"/>
</svg>
