<svg width="153" height="47" viewBox="0 0 153 47" fill="none" xmlns="http://www.w3.org/2000/svg">
<path d="M57.1885 12.7373C57.0889 14.1143 56.5791 15.1982 55.6592 15.9893C54.7451 16.7803 53.5381 17.1758 52.0381 17.1758C50.3975 17.1758 49.1055 16.625 48.1621 15.5234C47.2246 14.416 46.7559 12.8984 46.7559 10.9707V10.1885C46.7559 8.95801 46.9727 7.87402 47.4062 6.93652C47.8398 5.99902 48.458 5.28125 49.2607 4.7832C50.0693 4.2793 51.0068 4.02734 52.0732 4.02734C53.5498 4.02734 54.7393 4.42285 55.6416 5.21387C56.5439 6.00488 57.0654 7.11523 57.2061 8.54492H54.5693C54.5049 7.71875 54.2734 7.12109 53.875 6.75195C53.4824 6.37695 52.8818 6.18945 52.0732 6.18945C51.1943 6.18945 50.5352 6.50586 50.0957 7.13867C49.6621 7.76562 49.4395 8.74121 49.4277 10.0654V11.0322C49.4277 12.415 49.6357 13.4258 50.0518 14.0645C50.4736 14.7031 51.1357 15.0225 52.0381 15.0225C52.8525 15.0225 53.459 14.8379 53.8574 14.4688C54.2617 14.0938 54.4932 13.5166 54.5518 12.7373H57.1885ZM67.3135 12.333C67.3135 13.7979 66.9795 14.9727 66.3115 15.8574C65.6494 16.7363 64.7529 17.1758 63.6221 17.1758C62.6611 17.1758 61.8848 16.8418 61.293 16.1738V20.6562H58.7529V7.49023H61.1084L61.1963 8.42188C61.8115 7.68359 62.6143 7.31445 63.6045 7.31445C64.7764 7.31445 65.6875 7.74805 66.3379 8.61523C66.9883 9.48242 67.3135 10.6777 67.3135 12.2012V12.333ZM64.7734 12.1484C64.7734 11.2637 64.6152 10.5811 64.2988 10.1006C63.9883 9.62012 63.5342 9.37988 62.9365 9.37988C62.1396 9.37988 61.5918 9.68457 61.293 10.2939V14.1875C61.6035 14.8145 62.1572 15.1279 62.9541 15.1279C64.167 15.1279 64.7734 14.1348 64.7734 12.1484ZM68.5 12.1572C68.5 11.2139 68.6816 10.373 69.0449 9.63477C69.4082 8.89648 69.9297 8.3252 70.6094 7.9209C71.2949 7.5166 72.0889 7.31445 72.9912 7.31445C74.2744 7.31445 75.3203 7.70703 76.1289 8.49219C76.9434 9.27734 77.3975 10.3438 77.4912 11.6914L77.5088 12.3418C77.5088 13.8008 77.1016 14.9727 76.2871 15.8574C75.4727 16.7363 74.3799 17.1758 73.0088 17.1758C71.6377 17.1758 70.542 16.7363 69.7217 15.8574C68.9072 14.9785 68.5 13.7832 68.5 12.2715V12.1572ZM71.04 12.3418C71.04 13.2441 71.21 13.9355 71.5498 14.416C71.8896 14.8906 72.376 15.1279 73.0088 15.1279C73.624 15.1279 74.1045 14.8936 74.4502 14.4248C74.7959 13.9502 74.9688 13.1943 74.9688 12.1572C74.9688 11.2725 74.7959 10.5869 74.4502 10.1006C74.1045 9.61426 73.6182 9.37109 72.9912 9.37109C72.3701 9.37109 71.8896 9.61426 71.5498 10.1006C71.21 10.5811 71.04 11.3281 71.04 12.3418ZM82.7998 13.4932H81.7803V17H79.2402V7.49023H81.7803V11.0674H82.6855L84.7598 7.49023H87.9678L84.8564 12.0166L88.2578 17H84.874L82.7998 13.4932ZM94.9463 7.49023H97.4863V17H94.9463V11.1289L91.7646 17H89.2158V7.49023H91.7646V13.3525L94.9463 7.49023Z" fill="white"/>
<path d="M53.0469 39.1797H54.625V40.3594H53.0469V43H51.5938V40.3594H46.4141V39.5078L51.5078 31.625H53.0469V39.1797ZM48.0547 39.1797H51.5938V33.6016L51.4219 33.9141L48.0547 39.1797ZM67.1875 38.8672C67.1875 40.1536 66.8932 41.1901 66.3047 41.9766C65.7161 42.763 64.9193 43.1562 63.9141 43.1562C62.888 43.1562 62.0807 42.8307 61.4922 42.1797V46.25H60.0469V34.5469H61.3672L61.4375 35.4844C62.026 34.7552 62.8438 34.3906 63.8906 34.3906C64.9062 34.3906 65.7083 34.7734 66.2969 35.5391C66.8906 36.3047 67.1875 37.3698 67.1875 38.7344V38.8672ZM65.7422 38.7031C65.7422 37.75 65.5391 36.9974 65.1328 36.4453C64.7266 35.8932 64.1693 35.6172 63.4609 35.6172C62.5859 35.6172 61.9297 36.0052 61.4922 36.7812V40.8203C61.9245 41.5911 62.5859 41.9766 63.4766 41.9766C64.1693 41.9766 64.7188 41.7031 65.125 41.1562C65.5365 40.6042 65.7422 39.7865 65.7422 38.7031ZM74.25 43C74.1667 42.8333 74.099 42.5365 74.0469 42.1094C73.375 42.8073 72.5729 43.1562 71.6406 43.1562C70.8073 43.1562 70.1224 42.9219 69.5859 42.4531C69.0547 41.9792 68.7891 41.3802 68.7891 40.6562C68.7891 39.776 69.1224 39.0938 69.7891 38.6094C70.4609 38.1198 71.4036 37.875 72.6172 37.875H74.0234V37.2109C74.0234 36.7057 73.8724 36.3047 73.5703 36.0078C73.2682 35.7057 72.8229 35.5547 72.2344 35.5547C71.7188 35.5547 71.2865 35.6849 70.9375 35.9453C70.5885 36.2057 70.4141 36.5208 70.4141 36.8906H68.9609C68.9609 36.4688 69.1094 36.0625 69.4062 35.6719C69.7083 35.276 70.1146 34.9635 70.625 34.7344C71.1406 34.5052 71.7057 34.3906 72.3203 34.3906C73.2943 34.3906 74.0573 34.6354 74.6094 35.125C75.1615 35.6094 75.4479 36.2786 75.4688 37.1328V41.0234C75.4688 41.7995 75.5677 42.4167 75.7656 42.875V43H74.25ZM71.8516 41.8984C72.3047 41.8984 72.7344 41.7812 73.1406 41.5469C73.5469 41.3125 73.8411 41.0078 74.0234 40.6328V38.8984H72.8906C71.1198 38.8984 70.2344 39.4167 70.2344 40.4531C70.2344 40.9062 70.3854 41.2604 70.6875 41.5156C70.9896 41.7708 71.3776 41.8984 71.8516 41.8984ZM81.4453 35.0312C82.5078 35.0312 83.3568 35.388 83.9922 36.1016C84.6328 36.8099 84.9531 37.7448 84.9531 38.9062V39.0391C84.9531 39.8359 84.7995 40.5495 84.4922 41.1797C84.1849 41.8047 83.7422 42.2917 83.1641 42.6406C82.5911 42.9844 81.9297 43.1562 81.1797 43.1562C80.0443 43.1562 79.1302 42.7786 78.4375 42.0234C77.7448 41.263 77.3984 40.2448 77.3984 38.9688V38.2656C77.3984 36.4896 77.7266 35.0781 78.3828 34.0312C79.0443 32.9844 80.0182 32.3464 81.3047 32.1172C82.0339 31.987 82.526 31.8281 82.7812 31.6406C83.0365 31.4531 83.1641 31.1953 83.1641 30.8672H84.3516C84.3516 31.5182 84.2031 32.026 83.9062 32.3906C83.6146 32.7552 83.1458 33.013 82.5 33.1641L81.4219 33.4062C80.5625 33.6094 79.9167 33.9531 79.4844 34.4375C79.0573 34.9167 78.7786 35.5573 78.6484 36.3594C79.4141 35.474 80.3464 35.0312 81.4453 35.0312ZM81.1641 36.2188C80.4557 36.2188 79.8932 36.4583 79.4766 36.9375C79.0599 37.4115 78.8516 38.0703 78.8516 38.9141V39.0391C78.8516 39.9453 79.0599 40.6641 79.4766 41.1953C79.8984 41.7214 80.4661 41.9844 81.1797 41.9844C81.8984 41.9844 82.4661 41.7188 82.8828 41.1875C83.2995 40.6562 83.5078 39.8802 83.5078 38.8594C83.5078 38.0625 83.2969 37.4245 82.875 36.9453C82.4583 36.4609 81.888 36.2188 81.1641 36.2188ZM86.1953 38.6953C86.1953 37.8672 86.3568 37.1224 86.6797 36.4609C87.0078 35.7995 87.4609 35.2891 88.0391 34.9297C88.6224 34.5703 89.2865 34.3906 90.0312 34.3906C91.1823 34.3906 92.112 34.7891 92.8203 35.5859C93.5339 36.3828 93.8906 37.4427 93.8906 38.7656V38.8672C93.8906 39.6901 93.7318 40.4297 93.4141 41.0859C93.1016 41.737 92.651 42.2448 92.0625 42.6094C91.4792 42.974 90.8073 43.1562 90.0469 43.1562C88.901 43.1562 87.9714 42.7578 87.2578 41.9609C86.5495 41.1641 86.1953 40.1094 86.1953 38.7969V38.6953ZM87.6484 38.8672C87.6484 39.8047 87.8646 40.5573 88.2969 41.125C88.7344 41.6927 89.3177 41.9766 90.0469 41.9766C90.7812 41.9766 91.3646 41.6901 91.7969 41.1172C92.2292 40.5391 92.4453 39.7318 92.4453 38.6953C92.4453 37.7682 92.224 37.0182 91.7812 36.4453C91.3438 35.8672 90.7604 35.5781 90.0312 35.5781C89.3177 35.5781 88.7422 35.862 88.3047 36.4297C87.8672 36.9974 87.6484 37.8099 87.6484 38.8672ZM102.086 43H100.633V39.9375C99.9974 40.1042 99.3464 40.1875 98.6797 40.1875C97.6224 40.1875 96.8151 39.9167 96.2578 39.375C95.7057 38.8333 95.4245 38.0625 95.4141 37.0625V34.5391H96.8594V37.1094C96.8854 38.3698 97.4922 39 98.6797 39C99.3464 39 99.9974 38.9167 100.633 38.75V34.5469H102.086V43ZM109.875 34.5469H111.32V43H109.875V36.8359L105.977 43H104.531V34.5469H105.977V40.7188L109.875 34.5469ZM116.477 37.6328L118.352 34.5469H120.039L117.273 38.7266L120.125 43H118.453L116.5 39.8359L114.547 43H112.867L115.719 38.7266L112.953 34.5469H114.625L116.477 37.6328ZM125.477 41.8203L125.977 41.2031C126.539 40.474 126.859 39.3802 126.938 37.9219L127.07 34.5469H132.516V41.8203H133.602V45.4844H132.156V43H126.258V45.4844H124.812L124.82 41.8203H125.477ZM127.188 41.8203H131.07V35.8828H128.469L128.383 37.8984C128.294 39.5807 127.896 40.888 127.188 41.8203ZM142.109 43H140.664V39.3906H136.781V43H135.328V34.5469H136.781V38.2109H140.664V34.5469H142.109V43ZM150.898 34.5469V43H149.445V39.7109H147.266L145.273 43H143.711L145.836 39.4922C145.294 39.2943 144.878 38.9896 144.586 38.5781C144.299 38.1615 144.156 37.6771 144.156 37.125C144.156 36.3542 144.445 35.7344 145.023 35.2656C145.602 34.7917 146.375 34.5521 147.344 34.5469H150.898ZM145.609 37.1406C145.609 37.5521 145.75 37.8854 146.031 38.1406C146.312 38.3906 146.685 38.5182 147.148 38.5234H149.445V35.7188H147.367C146.831 35.7188 146.404 35.8516 146.086 36.1172C145.768 36.3776 145.609 36.7188 145.609 37.1406Z" fill="white"/>
<path d="M15.8687 24.2015C16.4223 24.1584 16.9269 23.8761 17.2545 23.4257L22.2335 16.5424C22.3861 16.3313 22.3632 16.0399 22.1782 15.8548C21.9931 15.6703 21.7017 15.6474 21.4906 15.7995L14.6062 20.7801C14.1574 21.1066 13.8751 21.6113 13.832 22.1648C13.7889 22.7184 13.9894 23.2603 14.3813 23.6522C14.7381 24.0096 15.2194 24.2074 15.7198 24.2074C15.7692 24.2074 15.8187 24.2052 15.8687 24.2015ZM14.8923 22.2478C14.911 22.0048 15.0354 21.783 15.2311 21.6405L19.4305 18.6025L16.3935 22.8008C16.25 22.9981 16.0282 23.122 15.7852 23.1412C15.5432 23.1571 15.3055 23.0731 15.1327 22.9003C14.9615 22.7285 14.8732 22.4903 14.8923 22.2478Z" fill="#FFBB01"/>
<path d="M27.7804 14.4036C27.7751 14.3925 27.7751 14.3808 27.7692 14.3696C27.7629 14.359 27.7528 14.3531 27.7458 14.343C27.2082 13.4209 26.5722 12.5632 25.8501 11.7857L26.9923 10.644L27.7442 11.3959L30 9.13959L27.7442 6.88381L25.4879 9.13959L26.2404 9.89205L25.0981 11.0338C24.3207 10.3116 23.4635 9.67509 22.5408 9.13747C22.5307 9.13055 22.5249 9.12045 22.5143 9.11407C22.5031 9.10769 22.4914 9.10822 22.4802 9.10237C20.8354 8.15475 18.9875 7.52353 17.0173 7.29221V6.65887H17.815C18.5483 6.65887 19.1444 6.06275 19.1444 5.32943C19.1444 4.59612 18.5477 4 17.8144 4H13.0285C12.2952 4 11.699 4.59612 11.699 5.32943C11.699 6.06275 12.2952 6.65887 13.0285 6.65887H13.8261V7.2736C13.2518 7.33475 12.6786 7.42835 12.1117 7.5581C11.8256 7.62351 11.6464 7.90907 11.7123 8.19516C11.7777 8.48126 12.0633 8.661 12.3494 8.59453C12.8386 8.48232 13.3326 8.39777 13.8277 8.34087L14.3983 8.29673C14.5727 8.28344 14.7333 8.27387 14.8897 8.26642V9.31774C14.8897 9.61181 15.1274 9.84951 15.4215 9.84951C15.7155 9.84951 15.9532 9.61181 15.9532 9.31774V8.27014C17.9532 8.36214 19.8378 8.89923 21.5135 9.78304L20.9891 10.6908C20.8424 10.9455 20.9296 11.2704 21.1838 11.4172C21.2672 11.4656 21.3587 11.4884 21.4491 11.4884C21.6331 11.4884 21.8118 11.3933 21.9102 11.2226L22.4329 10.3169C24.0968 11.3725 25.5103 12.786 26.5658 14.4499L25.6602 14.9726C25.4066 15.1194 25.3194 15.4443 25.4667 15.699C25.5656 15.8697 25.7437 15.9649 25.9277 15.9649C26.0181 15.9649 26.1096 15.942 26.1931 15.8937L27.1008 15.3693C27.9968 17.0689 28.5355 18.9843 28.6158 21.0162H27.5656C27.2715 21.0162 27.0338 21.2539 27.0338 21.548C27.0338 21.8421 27.2715 22.0798 27.5656 22.0798H28.6158C28.5355 24.1117 27.9968 26.0271 27.1008 27.7267L26.1931 27.2024C25.9389 27.0556 25.6134 27.1417 25.4667 27.397C25.3199 27.6517 25.4071 27.9766 25.6613 28.1234L26.5669 28.6461C25.5113 30.31 24.0979 31.7235 22.434 32.7791L21.9112 31.8735C21.7639 31.6182 21.4379 31.5315 21.1848 31.6788C20.9301 31.8256 20.8429 32.151 20.9902 32.4052L21.5145 33.313C19.8389 34.1968 17.9543 34.7339 15.9543 34.8259V33.7793C15.9543 33.4853 15.7166 33.2476 15.4225 33.2476C15.1284 33.2476 14.8907 33.4853 14.8907 33.7793V34.8301C14.0415 34.8009 13.1896 34.6945 12.351 34.502C12.0649 34.4334 11.7793 34.6153 11.7139 34.9014C11.648 35.1875 11.8272 35.473 12.1133 35.5384C13.1747 35.7831 14.259 35.9064 15.3348 35.9064C15.3608 35.9064 15.3858 35.9048 15.4119 35.9043C15.4156 35.9043 15.4183 35.9064 15.4215 35.9064C15.4257 35.9064 15.4294 35.9038 15.4337 35.9038C17.9899 35.8862 20.3882 35.196 22.4632 34.0037C22.4797 33.9963 22.4972 33.9926 22.5132 33.983C22.5238 33.9766 22.5297 33.9665 22.5398 33.9596C24.6876 32.7078 26.4823 30.9152 27.7368 28.769C27.7469 28.7546 27.7597 28.7434 27.7687 28.7275C27.7751 28.7163 27.7746 28.7046 27.7799 28.6935C28.9944 26.5876 29.6927 24.1489 29.6927 21.5485C29.6927 18.9482 28.9944 16.5094 27.7804 14.4036ZM27.7437 8.38767L28.4956 9.13959L27.7437 9.89205L26.9913 9.13959L27.7437 8.38767ZM14.8897 7.20181V5.59532H13.0285C12.8822 5.59532 12.7626 5.47567 12.7626 5.32943C12.7626 5.1832 12.8822 5.06355 13.0285 5.06355H17.8144C17.9607 5.06355 18.0803 5.1832 18.0803 5.32943C18.0803 5.47567 17.9607 5.59532 17.8144 5.59532H15.9532V7.20181C15.7682 7.19437 15.5916 7.19064 15.4215 7.19064C15.4066 7.19064 15.3895 7.19171 15.3747 7.19171C15.3614 7.19171 15.3481 7.19064 15.3348 7.19064C15.2476 7.19064 15.1604 7.19649 15.0731 7.19809C15.0115 7.19968 14.9535 7.19915 14.8897 7.20181Z" fill="#FFBB01"/>
<path d="M10.6356 11.4449H7.97672C7.68265 11.4449 7.44495 11.6826 7.44495 11.9767C7.44495 12.2708 7.68265 12.5085 7.97672 12.5085H10.6356C10.9297 12.5085 11.1674 12.2708 11.1674 11.9767C11.1674 11.6826 10.9297 11.4449 10.6356 11.4449Z" fill="#FFBB01"/>
<path d="M10.6355 15.1672H5.31772C5.02365 15.1672 4.78595 15.4049 4.78595 15.699C4.78595 15.9931 5.02365 16.2308 5.31772 16.2308H10.6355C10.9295 16.2308 11.1672 15.9931 11.1672 15.699C11.1672 15.4049 10.9295 15.1672 10.6355 15.1672Z" fill="#FFBB01"/>
<path d="M10.6355 18.8895H2.65885C2.36478 18.8895 2.12708 19.1272 2.12708 19.4213C2.12708 19.7154 2.36478 19.9531 2.65885 19.9531H10.6355C10.9295 19.9531 11.1672 19.7154 11.1672 19.4213C11.1672 19.1272 10.9295 18.8895 10.6355 18.8895Z" fill="#FFBB01"/>
<path d="M10.6355 22.6122H0.531774C0.237703 22.6122 0 22.8499 0 23.144C0 23.438 0.237703 23.6757 0.531774 23.6757H10.6355C10.9295 23.6757 11.1673 23.438 11.1673 23.144C11.1673 22.8499 10.9295 22.6122 10.6355 22.6122Z" fill="#FFBB01"/>
<path d="M10.6354 26.3345H3.72233C3.42825 26.3345 3.19055 26.5722 3.19055 26.8662C3.19055 27.1603 3.42825 27.398 3.72233 27.398H10.6354C10.9295 27.398 11.1672 27.1603 11.1672 26.8662C11.1672 26.5722 10.9295 26.3345 10.6354 26.3345Z" fill="#FFBB01"/>
<path d="M10.6355 30.0569H6.91306C6.61899 30.0569 6.38129 30.2946 6.38129 30.5887C6.38129 30.8827 6.61899 31.1204 6.91306 31.1204H10.6355C10.9295 31.1204 11.1673 30.8827 11.1673 30.5887C11.1673 30.2946 10.9295 30.0569 10.6355 30.0569Z" fill="#FFBB01"/>
</svg>
